<svg width="69" height="23" viewBox="0 0 69 23" fill="none" xmlns="http://www.w3.org/2000/svg">
<mask id="path-1-inside-1_8_3" fill="white">
<path d="M20.3003 0.194915C9.57166 1.79661 0 11.178 0 11.178V23H69V7.13559C69 7.13559 57.3247 12.0169 50.8033 12.0169C44.282 12.0169 41.2317 9.04237 39.6539 8.20339C38.0762 7.36441 31.029 -1.40678 20.3003 0.194915Z"/>
</mask>
<path d="M0 11.178L-209.992 -203.073L-300 -114.854V11.178H0ZM20.3003 0.194915L64.5968 296.907L64.5968 296.907L20.3003 0.194915ZM39.6539 8.20339L180.506 -256.675L180.506 -256.675L39.6539 8.20339ZM69 7.13559H369V-443.456L-46.7205 -269.647L69 7.13559ZM0 23H-300V323H0V23ZM69 23V323H369V23H69ZM0 11.178C209.992 225.429 209.942 225.478 209.892 225.527C209.876 225.543 209.826 225.591 209.793 225.624C209.726 225.689 209.66 225.754 209.593 225.819C209.46 225.949 209.327 226.078 209.194 226.208C208.927 226.468 208.658 226.728 208.389 226.988C207.851 227.508 207.307 228.029 206.757 228.551C205.659 229.594 204.532 230.649 203.373 231.713C201.071 233.828 198.571 236.049 195.87 238.343C190.673 242.757 183.741 248.283 175.112 254.166C163.282 262.231 124.235 288.003 64.5968 296.907L-23.9962 -296.517C-94.3629 -286.012 -143.56 -254.748 -162.858 -241.592C-175.221 -233.164 -185.217 -225.192 -192.544 -218.969C-196.31 -215.771 -199.641 -212.804 -202.509 -210.169C-203.95 -208.845 -205.294 -207.588 -206.537 -206.406C-207.159 -205.815 -207.758 -205.241 -208.334 -204.686C-208.621 -204.408 -208.903 -204.135 -209.18 -203.866C-209.318 -203.732 -209.454 -203.598 -209.59 -203.466C-209.657 -203.4 -209.725 -203.334 -209.792 -203.269C-209.825 -203.236 -209.875 -203.187 -209.892 -203.171C-209.942 -203.122 -209.992 -203.073 0 11.178ZM64.5968 296.907C-25.5352 310.363 -94.1642 277.668 -127.511 256.473C-144.106 245.926 -155.634 236.02 -159.632 232.536C-160.589 231.702 -161.319 231.05 -161.118 231.229C-161.112 231.235 -160.982 231.35 -160.878 231.442C-160.756 231.551 -160.558 231.727 -160.322 231.936C-159.885 232.323 -159.05 233.06 -158.015 233.96C-156.497 235.279 -151.652 239.486 -145.25 244.481C-140.873 247.896 -124.509 260.686 -101.198 273.082L180.506 -256.675C203.62 -244.384 219.744 -231.761 223.839 -228.566C229.96 -223.79 234.481 -219.857 235.634 -218.854C237 -217.667 238.251 -216.549 237.521 -217.198C237.277 -217.415 236.06 -218.499 234.578 -219.79C228.48 -225.104 214.223 -237.261 194.329 -249.905C154.381 -275.295 76.8645 -311.574 -23.9962 -296.517L64.5968 296.907ZM-101.199 273.082C-113.748 266.408 -123.076 260.209 -123.884 259.681C-124.828 259.063 -125.773 258.434 -125.178 258.829C-124.957 258.976 -123.86 259.705 -122.503 260.588C-116.517 264.484 -103.531 272.714 -86.015 281.087C-47.8243 299.344 -1.45199 312.017 50.8033 312.017V-287.983C96.5373 -287.983 138.124 -276.798 172.765 -260.238C188.506 -252.713 200.026 -245.384 204.793 -242.281C205.353 -241.917 205.808 -241.617 206.11 -241.418C206.262 -241.318 206.385 -241.237 206.465 -241.184C206.543 -241.132 206.597 -241.096 206.598 -241.095C206.918 -240.883 205.712 -241.685 204.521 -242.465C203.219 -243.316 193.451 -249.792 180.506 -256.675L-101.199 273.082ZM50.8033 312.017C106.834 312.017 152.238 295.814 155.542 294.734C163.269 292.208 169.734 289.828 174.247 288.102C176.6 287.202 178.669 286.385 180.395 285.691C181.263 285.342 182.061 285.017 182.78 284.722C183.14 284.574 183.482 284.433 183.806 284.299C183.967 284.232 184.124 284.167 184.277 284.104C184.353 284.072 184.428 284.041 184.502 284.01C184.539 283.994 184.576 283.979 184.612 283.964C184.63 283.956 184.658 283.945 184.667 283.941C184.694 283.93 184.721 283.918 69 7.13559C-46.7205 -269.647 -46.6937 -269.659 -46.6669 -269.67C-46.658 -269.673 -46.6311 -269.685 -46.6133 -269.692C-46.5776 -269.707 -46.542 -269.722 -46.5064 -269.737C-46.4353 -269.766 -46.3645 -269.796 -46.2939 -269.825C-46.1527 -269.884 -46.0124 -269.942 -45.873 -270C-45.5943 -270.116 -45.3186 -270.229 -45.0455 -270.341C-44.5003 -270.565 -43.9602 -270.785 -43.4235 -271C-42.3614 -271.427 -41.2558 -271.863 -40.0996 -272.305C-37.979 -273.116 -34.8402 -274.276 -30.8474 -275.581C-27.3184 -276.735 -20.0244 -279.025 -10.1493 -281.272C-3.03559 -282.89 19.9632 -287.983 50.8033 -287.983V312.017ZM-300 11.178V23H300V11.178H-300ZM0 323H69V-277H0V323ZM369 23V7.13559H-231V23H369Z" fill="white" mask="url(#path-1-inside-1_8_3)"/>
</svg>
