<svg width="56" height="13" viewBox="0 0 56 13" fill="none" xmlns="http://www.w3.org/2000/svg">
<mask id="path-1-inside-1_11_10" fill="white">
<path d="M12.3721 12.853C3.90698 13.8668 0 9.30454 0 9.30454V0.5H27.3488H56V6.76994C56 6.76994 45.5814 4.23533 41.0233 4.23533C36.4651 4.23533 30.6047 7.27686 27.3488 8.2907C24.093 9.30454 20.8372 11.8391 12.3721 12.853Z"/>
</mask>
<path d="M0 9.30454H-14V14.4799L-10.6337 18.4108L0 9.30454ZM56 6.76994L52.6906 20.3732L70 24.5841V6.76994H56ZM56 0.5H70V-13.5H56V0.5ZM0 0.5V-13.5H-14V0.5H0ZM0 9.30454C-10.6337 18.4108 -10.6284 18.417 -10.6231 18.4232C-10.6213 18.4252 -10.616 18.4314 -10.6124 18.4356C-10.6053 18.4439 -10.598 18.4523 -10.5907 18.4608C-10.576 18.4778 -10.561 18.4951 -10.5456 18.5127C-10.5149 18.548 -10.4827 18.5844 -10.4492 18.6221C-10.3822 18.6975 -10.3095 18.7778 -10.2311 18.8625C-10.0745 19.0318 -9.89461 19.2195 -9.69113 19.422C-9.28476 19.8264 -8.78024 20.2939 -8.174 20.7947C-6.96383 21.7945 -5.32373 22.9474 -3.23162 23.9898C1.07813 26.137 6.9075 27.6075 14.0369 26.7536L10.7073 -1.04767C9.37157 -0.887697 9.01489 -1.19145 9.25488 -1.07188C9.3121 -1.04337 9.44639 -0.967611 9.65947 -0.791579C9.76716 -0.702607 9.90031 -0.583663 10.06 -0.424792C10.1401 -0.345059 10.2277 -0.254419 10.323 -0.151408C10.3707 -0.0998626 10.4204 -0.0451032 10.4721 0.0130657C10.498 0.0421553 10.5244 0.0721123 10.5513 0.102962C10.5648 0.118388 10.5784 0.134038 10.5921 0.149917C10.599 0.157857 10.6059 0.165854 10.6128 0.173908C10.6163 0.177933 10.6215 0.184022 10.6232 0.186033C10.6284 0.192129 10.6337 0.198246 0 9.30454ZM14.0369 26.7536C19.5391 26.0947 23.6142 24.8943 26.8922 23.6183C28.4015 23.0309 29.7342 22.4259 30.4888 22.0921C31.3996 21.6893 31.5502 21.6455 31.5112 21.6576L23.1865 -5.07622C21.5196 -4.55716 20.0423 -3.90394 19.1623 -3.51473C18.1263 -3.05646 17.5054 -2.77428 16.7357 -2.47466C15.4555 -1.97637 13.6702 -1.40253 10.7073 -1.04767L14.0369 26.7536ZM31.5112 21.6576C32.9154 21.2204 34.3824 20.6386 35.3792 20.2433C36.5547 19.7771 37.498 19.3974 38.4781 19.0414C39.4389 18.6923 40.1695 18.4658 40.7206 18.3321C41.3071 18.1899 41.361 18.2353 41.0233 18.2353V-9.76467C36.1263 -9.76467 31.5533 -8.23338 28.9173 -7.27573C27.4555 -6.74469 26.0383 -6.17382 25.0569 -5.7846C23.8967 -5.32448 23.4102 -5.1459 23.1865 -5.07622L31.5112 21.6576ZM41.0233 18.2353C40.9956 18.2353 41.1802 18.2362 41.6361 18.28C42.0656 18.3213 42.6064 18.3879 43.2518 18.4827C44.5499 18.6734 46.0271 18.9417 47.4804 19.2318C48.9178 19.5187 50.2396 19.8084 51.205 20.0273C51.685 20.1361 52.07 20.2259 52.329 20.287C52.4583 20.3175 52.5558 20.3408 52.6175 20.3556C52.6483 20.363 52.6702 20.3682 52.6825 20.3712C52.6887 20.3727 52.6925 20.3736 52.6939 20.374C52.6946 20.3741 52.6947 20.3742 52.6941 20.374C52.6938 20.374 52.6934 20.3739 52.6928 20.3737C52.6926 20.3736 52.692 20.3735 52.6919 20.3735C52.6913 20.3733 52.6906 20.3732 56 6.76994C59.3094 -6.83331 59.3086 -6.83348 59.3079 -6.83366C59.3076 -6.83373 59.3068 -6.83392 59.3062 -6.83407C59.305 -6.83437 59.3036 -6.8347 59.3021 -6.83507C59.299 -6.83582 59.2953 -6.83672 59.291 -6.83777C59.2823 -6.83987 59.2711 -6.84258 59.2574 -6.84589C59.2301 -6.85249 59.1929 -6.86146 59.1463 -6.87263C59.0531 -6.89497 58.9223 -6.92617 58.7579 -6.96496C58.4293 -7.04246 57.9647 -7.15072 57.3967 -7.27952C56.2662 -7.53584 54.6985 -7.87978 52.9614 -8.22652C49.9634 -8.82497 44.8974 -9.76467 41.0233 -9.76467V18.2353ZM70 6.76994V0.5H42V6.76994H70ZM-14 0.5V9.30454H14V0.5H-14ZM56 -13.5H27.3488V14.5H56V-13.5ZM27.3488 -13.5H0V14.5H27.3488V-13.5Z" fill="#DFE3EC" mask="url(#path-1-inside-1_11_10)"/>
</svg>
