<svg width="56" height="13" viewBox="0 0 56 13" fill="none" xmlns="http://www.w3.org/2000/svg">
<mask id="path-1-inside-1_11_10" fill="white">
<path d="M43.6279 0.647009C52.093 -0.366834 56 4.19546 56 4.19546V13L28.6512 13L0 13V6.73006C0 6.73006 10.4186 9.26467 14.9767 9.26467C19.5349 9.26467 25.3953 6.22314 28.6512 5.2093C31.907 4.19546 35.1628 1.66085 43.6279 0.647009Z"/>
</mask>
<path d="M56 4.19546L70 4.19546V-0.9799L66.6337 -4.91084L56 4.19546ZM0 6.73006L3.30936 -6.87318L-14 -11.0841V6.73006L0 6.73006ZM0 13L-14 13V27H0V13ZM56 13V27H70V13L56 13ZM56 4.19546C66.6337 -4.91084 66.6284 -4.91699 66.6231 -4.92316C66.6213 -4.92524 66.616 -4.93143 66.6124 -4.93559C66.6053 -4.94393 66.598 -4.95234 66.5907 -4.96083C66.576 -4.97781 66.561 -4.99511 66.5456 -5.01273C66.5149 -5.04796 66.4827 -5.08444 66.4492 -5.12213C66.3822 -5.1975 66.3095 -5.27776 66.2311 -5.36247C66.0745 -5.53182 65.8946 -5.71949 65.6911 -5.92199C65.2848 -6.3264 64.7802 -6.79385 64.174 -7.2947C62.9638 -8.29448 61.3237 -9.44744 59.2316 -10.4898C54.9219 -12.637 49.0925 -14.1075 41.9631 -13.2536L45.2927 14.5477C46.6284 14.3877 46.9851 14.6914 46.7451 14.5719C46.6879 14.5434 46.5536 14.4676 46.3405 14.2916C46.2328 14.2026 46.0997 14.0837 45.94 13.9248C45.8599 13.8451 45.7723 13.7544 45.677 13.6514C45.6293 13.5999 45.5796 13.5451 45.5279 13.4869C45.502 13.4578 45.4756 13.4279 45.4487 13.397C45.4352 13.3816 45.4216 13.366 45.4079 13.3501C45.401 13.3421 45.3941 13.3341 45.3872 13.3261C45.3837 13.3221 45.3785 13.316 45.3768 13.314C45.3716 13.3079 45.3663 13.3018 56 4.19546ZM41.9631 -13.2536C36.4609 -12.5947 32.3858 -11.3943 29.1078 -10.1183C27.5985 -9.53086 26.2658 -8.92592 25.5112 -8.59213C24.6004 -8.18928 24.4498 -8.14548 24.4888 -8.15762L32.8135 18.5762C34.4804 18.0572 35.9577 17.4039 36.8377 17.0147C37.8737 16.5565 38.4946 16.2743 39.2643 15.9747C40.5445 15.4764 42.3298 14.9025 45.2927 14.5477L41.9631 -13.2536ZM24.4888 -8.15762C23.0846 -7.72038 21.6176 -7.13857 20.6208 -6.74327C19.4453 -6.27705 18.502 -5.89744 17.5219 -5.54138C16.5611 -5.19232 15.8305 -4.96576 15.2794 -4.83214C14.6929 -4.68993 14.639 -4.73533 14.9767 -4.73533V23.2647C19.8737 23.2647 24.4467 21.7334 27.0827 20.7757C28.5445 20.2447 29.9617 19.6738 30.9431 19.2846C32.1033 18.8245 32.5898 18.6459 32.8135 18.5762L24.4888 -8.15762ZM14.9767 -4.73533C15.0044 -4.73533 14.8198 -4.73621 14.3639 -4.78002C13.9344 -4.8213 13.3936 -4.88794 12.7482 -4.98274C11.4501 -5.17341 9.97291 -5.44168 8.51957 -5.73178C7.08223 -6.0187 5.76043 -6.30841 4.79495 -6.52732C4.31502 -6.63614 3.93003 -6.7259 3.67101 -6.78701C3.54166 -6.81752 3.44419 -6.84078 3.38251 -6.85557C3.35168 -6.86296 3.32985 -6.86823 3.31748 -6.87122C3.31129 -6.87271 3.30749 -6.87363 3.30611 -6.87397C3.30542 -6.87413 3.30534 -6.87415 3.30588 -6.87402C3.30615 -6.87395 3.30658 -6.87385 3.30716 -6.87371C3.30744 -6.87364 3.30799 -6.87351 3.30814 -6.87347C3.30873 -6.87333 3.30936 -6.87318 0 6.73006C-3.30936 20.3333 -3.30865 20.3335 -3.3079 20.3337C-3.3076 20.3337 -3.30681 20.3339 -3.3062 20.3341C-3.30499 20.3344 -3.30362 20.3347 -3.30208 20.3351C-3.29902 20.3358 -3.29531 20.3367 -3.29097 20.3378C-3.2823 20.3399 -3.2711 20.3426 -3.25742 20.3459C-3.23009 20.3525 -3.19287 20.3615 -3.14627 20.3726C-3.05311 20.395 -2.92229 20.4262 -2.75786 20.465C-2.42931 20.5425 -1.96473 20.6507 -1.3967 20.7795C-0.266239 21.0358 1.30149 21.3798 3.03857 21.7265C6.03663 22.325 11.1026 23.2647 14.9767 23.2647V-4.73533ZM-14 6.73006V13L14 13V6.73006L-14 6.73006ZM70 13V4.19546L42 4.19546V13L70 13ZM0 27L28.6512 27V-1L0 -1V27ZM28.6512 27L56 27V-1L28.6512 -1V27Z" fill="white" mask="url(#path-1-inside-1_11_10)"/>
</svg>
